# xmcd
#
# Track frame offsets: 
#        183
#        14280
#        27930
#        42625
#        51505
#        58608
#        72350
#        82220
#        93378
#        108808
#
# Disc length: 2106 seconds
#
# Revision: 4
# Processed by: cddbd v1.5.2PL0 Copyright (c) Steve Scherf et al.
# Submitted via: ExactAudioCopy v1.3
#
DISCID=8808380a
DTITLE=The Doors - Strange Days
DYEAR=1967
DGENRE=Rock
TTITLE0=Strange Days
TTITLE1=You're Lost Little Girl
TTITLE2=Love Me Two Times
TTITLE3=Unhappy Girl
TTITLE4=Horse Latitudes
TTITLE5=Moonlight Drive
TTITLE6=People Are Strange
TTITLE7=My Eyes Have Seen You
TTITLE8=I Can't See Your Face in My Mind
TTITLE9=When the Music's Over
EXTD=Produced by Paul A. Rothschild\n YEAR: 1967
EXTT0=
EXTT1=
EXTT2=
EXTT3=
EXTT4=
EXTT5=
EXTT6=
EXTT7=
EXTT8=
EXTT9=
PLAYORDER=
